<svg width="43" height="55" viewBox="0 0 43 55" fill="none" xmlns="http://www.w3.org/2000/svg">
<path d="M21.5 0C14.0217 0 0 5.78947 0 22.193C0 38.5965 21.5 55 21.5 55C21.5 55 43 38.5965 43 22.193C43 5.78947 28.9783 0 21.5 0Z" fill="#E01F3D"/>
<g clip-path="url(#clip0_4_1065)">
<path d="M21.5 25.4735C23.3671 25.4735 24.8947 23.9104 24.8947 21.9998C24.8947 20.0893 23.3671 18.5262 21.5 18.5262C19.6329 18.5262 18.1052 20.0893 18.1052 21.9998C18.1052 23.9104 19.6329 25.4735 21.5 25.4735ZM21.5 10.4209C20.3684 10.4209 19.1802 10.5946 18.1052 10.942V17.3683C20.5947 15.4577 24.1592 15.9788 26.0263 18.5262C27.8934 21.0735 27.3842 24.7209 24.8947 26.6314C22.4052 28.542 18.8408 28.0209 16.9737 25.4735C16.2381 24.4893 15.8421 23.2735 15.8421 21.9998V11.9841C10.4105 15.1683 8.59999 22.2314 11.7118 27.7893C14.8237 33.3472 21.7263 35.1998 27.1579 32.0156C32.5895 28.8314 34.4 21.7683 31.2881 16.2104C29.3079 12.6209 25.5737 10.4209 21.5 10.4209Z" fill="white"/>
</g>
<defs>
<clipPath id="clip0_4_1065">
<rect width="22.6316" height="23.1579" fill="white" transform="translate(10.1842 10.4209)"/>
</clipPath>
</defs>
</svg>
